<svg xmlns="http://www.w3.org/2000/svg" version="1.1" xmlns:xlink="http://www.w3.org/1999/xlink" xmlns:svgjs="http://svgjs.dev/svgjs" width="1000" height="441" viewBox="0 0 1000 441"><g transform="matrix(1,0,0,1,-0.6056348047761162,0.05569173629308466)"><svg viewBox="0 0 396 175" data-background-color="#282634" preserveAspectRatio="xMidYMid meet" height="441" width="1000" xmlns="http://www.w3.org/2000/svg" xmlns:xlink="http://www.w3.org/1999/xlink"><g id="tight-bounds" transform="matrix(1,0,0,1,0.24008861730862918,-0.021978761719935846)"><svg viewBox="0 0 395.52 175.0440786570743" height="175.0440786570743" width="395.52"><g><svg viewBox="0 0 395.52 175.0440786570743" height="175.0440786570743" width="395.52"><g><svg viewBox="0 0 395.52 175.0440786570743" height="175.0440786570743" width="395.52"><g><svg viewBox="0 0 395.52 175.0440786570743" height="175.0440786570743" width="395.52"><g><svg viewBox="0 0 395.52 175.0440786570743" height="175.0440786570743" width="395.52"><path d="M394.594 37.544C392.735 19.374 387.435 14.323 387.435 14.323 371.165-4.392 350.86-0.358 332.619 2.331 300.414 2.44 268.339 6.437 236.208 8.581 168.767 8.908 100.749 3.53 33.643 16.794 27.339 20.864-6.54 17.593 1.121 39.869 3.129 49.136 10.456 59.42 10.232 67.923 11.236 69.413 12.631 65.997 13.226 68.141 15.309 73.919 18.711 71.194 21.501 74.609 17.614 83.731 20.403 91.325 23.062 99.284 18.377 101.355 12.371 100.374 9.675 107.242 9.396 112.22 7.89 111.275 6.235 111.057 5.026 110.912 2.59 111.457 2.999 113.02 4.394 118.362-1.594 121.45 2.162 126.683-0.422 132.352 3.948 137.258 3.353 143.399 3.278 144.635 3.687 145.689 4.338 145.979 7.22 147.542 3.018 150.594 3.464 153.901 33.029 176.504 65.104 160.878 95.394 171.271 103.259 164.003 97.346 173.851 100.489 172.325 102.943 170.544 104.728 177.921 107.499 173.742 107.927 172.543 107.276 169.709 108.8 170.254 109.6 170.544 110.307 170.472 110.418 168.8 110.586 166.293 109.117 167.855 108.726 166.547 112.947 159.933 111.906 175.668 115.866 175.014 115.68 173.088 114.528 170.326 116.889 170.69 119.232 167.928 119.306 165.639 121.389 171.853 121.463 173.197 121.835 174.142 122.43 174.796 128.938 168.037 135.409 177.194 142.233 174.142 146.417 170.799 150.433 175.959 154.672 174.687 156.16 173.67 157.666 171.853 159.098 174.905 176.632 175.559 195.319 172.834 211.943 175.014 256.364 170.944 303.835 176.686 350.674 171.308 361.719 169.236 373.192 166.293 383.958 163.931 383.958 163.931 392.679 157.462 392.679 128.391S394.538 102.954 394.817 79.806C395.096 56.658 396.398 55.713 394.538 37.544Z" opacity="1" fill="#ff4057" data-fill-palette-color="tertiary"></path><g transform="matrix(1,0,0,1,55.76832,26.230666666666668)"><svg width="283.98335999999995" viewBox="2.0999999046325684 -35.70000076293945 83.4000015258789 36" height="122.58274532374097" data-palette-color="#282634"><path d="M2.1-18L2.1-18Q2.1-21.25 3.23-24.38 4.35-27.5 6.5-30.08 8.65-32.65 11.8-34.18 14.95-35.7 18.95-35.7L18.95-35.7Q23.7-35.7 27.08-33.52 30.45-31.35 32.05-27.95L32.05-27.95 29.3-26.25Q28.15-28.6 26.4-29.98 24.65-31.35 22.68-31.95 20.7-32.55 18.75-32.55L18.75-32.55Q15.55-32.55 13.1-31.28 10.65-30 8.97-27.88 7.3-25.75 6.45-23.13 5.6-20.5 5.6-17.8L5.6-17.8Q5.6-14.85 6.6-12.15 7.6-9.45 9.4-7.38 11.2-5.3 13.63-4.08 16.05-2.85 18.9-2.85L18.9-2.85Q20.9-2.85 23-3.55 25.1-4.25 26.93-5.7 28.75-7.15 29.85-9.45L29.85-9.45 32.75-7.95Q31.65-5.3 29.35-3.45 27.05-1.6 24.23-0.65 21.4 0.3 18.7 0.3L18.7 0.3Q15.05 0.3 12-1.28 8.95-2.85 6.73-5.48 4.5-8.1 3.3-11.38 2.1-14.65 2.1-18ZM57.75-20.1L51.55-35.25 54.85-35.25 59.85-22.65 64.9-35.25 68.25-35.25 62.05-20.1 68.85-4.05 81.7-35.5 85.5-35.5 70.45 0 67.35 0 59.9-17.55 52.4 0 49.35 0 34.35-35.5 38.1-35.5 51-4.05 57.75-20.1Z" opacity="1" transform="matrix(1,0,0,1,0,0)" fill="#282634" class="undefined-text-0" data-fill-palette-color="quaternary" id="text-0"></path></svg></g></svg></g></svg></g></svg></g><g></g></svg></g><defs></defs></svg><rect width="395.52" height="175.0440786570743" fill="none" stroke="none" visibility="hidden"></rect></g></svg></g></svg>